<?xml version="1.0" encoding="UTF-8"?><svg id="Ebene_2" xmlns="http://www.w3.org/2000/svg" viewBox="0 0 254 152"><defs><style>.cls-1{fill:#fff;stroke-width:0px;}</style></defs><g id="Ebene_2-2"><path class="cls-1" d="m3.87,151.9s0,.07-.01.1h2.68c.05-2.14,1.8-3.87,3.96-3.87s3.9,1.72,3.96,3.87h2.68c.05-2.14,1.8-3.87,3.96-3.87s3.9,1.72,3.96,3.87h2.68c.05-2.14,1.8-3.87,3.96-3.87s3.9,1.72,3.96,3.87h2.68c.05-2.14,1.8-3.87,3.96-3.87s3.9,1.72,3.96,3.87h2.68c.05-2.14,1.8-3.87,3.96-3.87s3.9,1.72,3.96,3.87h2.68c.05-2.14,1.8-3.87,3.96-3.87s3.9,1.72,3.96,3.87h2.68c.05-2.14,1.8-3.87,3.96-3.87s3.9,1.72,3.96,3.87h2.68c.05-2.14,1.8-3.87,3.96-3.87s3.9,1.72,3.96,3.87h2.68s-.01-.07-.01-.1c0-2.19,1.78-3.97,3.97-3.97s3.97,1.78,3.97,3.97c0,.03,0,.07-.01.1h2.68s-.01-.07-.01-.1c0-2.19,1.78-3.97,3.97-3.97s3.97,1.78,3.97,3.97c0,.03,0,.07-.01.1h2.68s-.01-.07-.01-.1c0-2.19,1.78-3.97,3.97-3.97s3.97,1.78,3.97,3.97c0,.03,0,.07-.01.1h2.68c.05-2.14,1.8-3.87,3.96-3.87s3.9,1.72,3.96,3.87h2.68c.05-2.14,1.8-3.87,3.96-3.87s3.9,1.72,3.96,3.87h2.68s-.01-.07-.01-.1c0-2.19,1.78-3.97,3.97-3.97s3.97,1.78,3.97,3.97c0,.03,0,.07-.01.1h2.68s-.01-.07-.01-.1c0-2.19,1.78-3.97,3.97-3.97s3.97,1.78,3.97,3.97c0,.03,0,.07-.01.1h2.68c.05-2.14,1.8-3.87,3.96-3.87s3.9,1.72,3.96,3.87h2.68c.05-2.14,1.8-3.87,3.96-3.87s3.9,1.72,3.96,3.87h2.68c.05-2.14,1.8-3.87,3.96-3.87s3.9,1.72,3.96,3.87h2.68c.05-2.14,1.8-3.87,3.96-3.87s3.9,1.72,3.96,3.87h2.68c.05-2.14,1.8-3.87,3.96-3.87s3.9,1.72,3.96,3.87h2.68c.05-2.14,1.8-3.87,3.96-3.87s3.9,1.72,3.96,3.87h2.68c.05-2.14,1.8-3.87,3.96-3.87s3.9,1.72,3.96,3.87h2.68c.05-2.14,1.8-3.87,3.96-3.87s3.9,1.72,3.96,3.87h2.68c.05-2.11,1.75-3.81,3.86-3.86V0H0v147.94c2.15.05,3.87,1.8,3.87,3.96Z"/></g></svg>